Coordinates
version=1
nRows=15
nColumns=63
inDegrees=yes

Units are S.I. units (second, meters, Newtons, ...)
If the header above contains a line with 'inDegrees', this indicates whether rotational values are in degrees (yes) or radians (no).

endheader
time	pelvis_tilt	pelvis_list	pelvis_rotation	pelvis_tx	pelvis_ty	pelvis_tz	hip_flexion_r	hip_adduction_r	hip_rotation_r	knee_angle_r	knee_angle_r_beta	ankle_angle_r	subtalar_angle_r	mtp_angle_r	hip_flexion_l	hip_adduction_l	hip_rotation_l	knee_angle_l	knee_angle_l_beta	ankle_angle_l	subtalar_angle_l	mtp_angle_l	L5_S1_Flex_Ext	L5_S1_Lat_Bending	L5_S1_axial_rotation	L4_L5_Flex_Ext	L4_L5_Lat_Bending	L4_L5_axial_rotation	L3_L4_Flex_Ext	L3_L4_Lat_Bending	L3_L4_axial_rotation	L2_L3_Flex_Ext	L2_L3_Lat_Bending	L2_L3_axial_rotation	L1_L2_Flex_Ext	L1_L2_Lat_Bending	L1_L2_axial_rotation	L1_T12_Flex_Ext	L1_T12_Lat_Bending	L1_T12_axial_rotation	Abs_r3	Abs_r2	Abs_r1	Abs_t1	Abs_t2	neck_flexion	neck_bending	neck_rotation	arm_flex_r	arm_add_r	arm_rot_r	elbow_flex_r	pro_sup_r	wrist_flex_r	wrist_dev_r	arm_flex_l	arm_add_l	arm_rot_l	elbow_flex_l	pro_sup_l	wrist_flex_l	wrist_dev_l
0.000000	5.445044	-4.344145	92.689233	0.318343	1.011959	0.465739	4.574936	-0.388674	9.185262	6.131354	0.107012	27.904414	-10.259940	0.000000	4.634713	0.000608	10.223325	4.937919	0.086183	25.267798	-16.828492	0.000000	0.447152	0.391322	-0.548728	0.830406	0.520458	-0.583024	0.734626	0.951460	-0.583024	0.511050	0.951460	-0.480137	0.415225	0.797984	-0.445842	0.255503	0.606158	-0.411546	3.193962	4.426712	-3.051863	0.000000	0.000000	28.294779	9.834557	13.797797	17.123116	-5.894590	61.091292	43.259210	79.707212	-2.251188	-3.846350	12.826995	-5.269557	58.127960	38.497525	42.905566	-8.498331	-17.549391
0.016949	4.957109	-4.523327	91.329747	0.319660	1.011691	0.467263	5.173621	-0.912055	9.280338	6.581849	0.114875	28.032546	-8.623166	0.000000	4.808225	0.448745	9.179063	5.003210	0.087322	25.278474	-16.950290	0.000000	0.449691	0.346343	-0.312745	0.835122	0.460637	-0.332292	0.738798	0.842099	-0.332292	0.513952	0.842099	-0.273652	0.417583	0.706263	-0.254106	0.256954	0.536486	-0.234559	3.212101	3.917906	-1.739396	0.000000	0.000000	28.295526	9.784291	13.724212	17.342917	-5.865013	61.043864	43.405378	76.991354	-2.809706	-4.273479	13.108275	-5.349278	57.482982	38.208686	47.336957	-9.515320	-18.377649
0.033898	4.565814	-4.661588	90.326167	0.320558	1.011456	0.468326	5.615603	-1.341492	9.274401	6.935923	0.121055	28.131788	-7.316943	0.000000	4.932769	0.817237	8.460828	5.030786	0.087804	25.297503	-17.059764	0.000000	0.451973	0.309482	-0.138471	0.839359	0.411611	-0.147125	0.742547	0.752474	-0.147125	0.516560	0.752474	-0.121162	0.419702	0.631095	-0.112508	0.258258	0.479387	-0.103853	3.228400	3.500921	-0.770133	0.000000	0.000000	28.297692	9.757539	13.642445	17.419661	-5.809011	60.830365	43.520576	74.878107	-3.343393	-4.623487	13.309609	-5.406907	56.975633	37.987186	50.821027	-10.340791	-18.986129
0.050847	4.263387	-4.762176	89.643228	0.321083	1.011253	0.468971	5.915352	-1.683870	9.182414	7.201484	0.125690	28.204076	-6.315238	0.000000	5.012293	1.111904	8.032851	5.025676	0.087715	25.321405	-17.157194	0.000000	0.453946	0.280131	-0.019836	0.843023	0.372574	-0.021076	0.745788	0.681110	-0.021076	0.518815	0.681110	-0.017357	0.421534	0.571243	-0.016117	0.259385	0.433923	-0.014877	3.242492	3.168896	-0.110323	0.000000	0.000000	28.301029	9.751692	13.554115	17.367937	-5.730706	60.467400	43.610091	73.315530	-3.846790	-4.900705	13.438677	-5.444801	56.589782	37.827688	53.448831	-10.989643	-19.396733
0.067797	4.042061	-4.828340	89.245663	0.321279	1.011083	0.469242	6.087340	-1.946072	9.019338	7.386441	0.128918	28.251348	-5.592016	0.000000	5.050745	1.338568	7.859363	4.992913	0.087143	25.346703	-17.242859	0.000000	0.455559	0.257684	0.049227	0.846018	0.342720	0.052303	0.748438	0.626533	0.052303	0.520658	0.626533	0.043073	0.423032	0.525469	0.039997	0.260306	0.399153	0.036920	3.254012	2.914973	0.273785	0.000000	0.000000	28.305292	9.764139	13.460842	17.202330	-5.634217	59.971573	43.679212	72.251682	-4.314440	-5.109466	13.503160	-5.465317	56.309299	37.724853	55.311424	-11.476772	-19.631361
0.084746	3.894066	-4.863328	89.098205	0.321190	1.010942	0.469186	6.146037	-2.134982	8.800138	7.498701	0.130877	28.275541	-5.121242	0.000000	5.052069	1.503051	7.904596	4.937527	0.086176	25.369916	-17.317037	0.000000	0.456760	0.241535	0.074787	0.848249	0.321241	0.079461	0.750411	0.587268	0.079461	0.522031	0.587268	0.065438	0.424148	0.492538	0.060764	0.260993	0.374138	0.056090	3.262592	2.732291	0.415942	0.000000	0.000000	28.310233	9.792270	13.364245	16.937429	-5.523665	59.359488	43.733224	71.634622	-4.740886	-5.254100	13.510737	-5.470809	56.118053	37.673343	56.499857	-11.817077	-19.711918
0.101695	3.811633	-4.870390	89.165587	0.320859	1.010832	0.468845	6.105914	-2.257485	8.539776	7.546174	0.131706	28.278591	-4.876881	0.000000	5.020215	1.611173	8.132782	4.864551	0.084902	25.387567	-17.380007	0.000000	0.457499	0.231077	0.062912	0.849621	0.307332	0.066844	0.751625	0.561841	0.066844	0.522875	0.561841	0.055048	0.424833	0.471212	0.051116	0.261415	0.357938	0.047184	3.267867	2.613989	0.349900	0.000000	0.000000	28.315605	9.833476	13.265943	16.587821	-5.403169	58.647751	43.777416	71.412408	-5.120669	-5.338939	13.469089	-5.463636	55.999913	37.667819	57.105187	-12.025457	-19.660303
0.118644	3.786992	-4.852774	89.412543	0.320332	1.010749	0.468265	5.981442	-2.320465	8.253215	7.536768	0.131541	28.262437	-4.832899	0.000000	4.959128	1.668756	8.508151	4.779016	0.083410	25.396177	-17.432049	0.000000	0.457723	0.225704	0.019672	0.850038	0.300186	0.020902	0.751993	0.548776	0.020902	0.523132	0.548776	0.017213	0.425042	0.460255	0.015984	0.261543	0.349615	0.014754	3.269470	2.553207	0.109410	0.000000	0.000000	28.321163	9.885145	13.167556	16.168091	-5.276851	57.852965	43.817075	71.533100	-5.448331	-5.368315	13.385896	-5.446153	55.938748	37.702943	57.218466	-12.116809	-19.498420
0.135593	3.812376	-4.813728	89.803806	0.319653	1.010695	0.467489	5.787091	-2.330805	7.955417	7.478392	0.130523	28.229014	-4.963261	0.000000	4.872755	1.681622	8.994936	4.685953	0.081785	25.392265	-17.473441	0.000000	0.457382	0.224809	-0.048866	0.849404	0.298996	-0.051920	0.751433	0.546601	-0.051920	0.522742	0.546601	-0.042757	0.424725	0.458431	-0.039703	0.261348	0.348229	-0.036649	3.267035	2.543086	-0.271776	0.000000	0.000000	28.326658	9.944668	13.070704	15.692829	-5.148831	56.991736	43.857488	71.944756	-5.718416	-5.346559	13.268837	-5.420716	55.918427	37.773377	56.930748	-12.106030	-19.248171
0.152542	3.880013	-4.756503	90.304109	0.318865	1.010666	0.466563	5.537334	-2.295391	7.661346	7.378954	0.128787	28.180259	-5.241932	0.000000	4.765044	1.655590	9.557367	4.590393	0.080117	25.372355	-17.504463	0.000000	0.456424	0.227786	-0.136632	0.847626	0.302956	-0.145172	0.749860	0.553840	-0.145172	0.521648	0.553840	-0.119553	0.423836	0.464502	-0.111014	0.260801	0.352841	-0.102474	3.260195	2.576764	-0.759908	0.000000	0.000000	28.331845	10.009436	12.977004	15.176620	-5.023229	56.080667	43.903942	72.595434	-5.925465	-5.278004	13.125593	-5.389683	55.922820	37.873782	56.333088	-12.008020	-18.931457
0.169492	3.982136	-4.684347	90.878186	0.318014	1.010663	0.465531	5.246640	-2.221105	7.385964	7.246362	0.126473	28.118111	-5.642879	0.000000	4.639941	1.596483	10.159676	4.497368	0.078494	25.332966	-17.525394	0.000000	0.454799	0.234029	-0.237559	0.844607	0.311259	-0.252407	0.747189	0.569018	-0.252407	0.519790	0.569018	-0.207864	0.422326	0.477232	-0.193017	0.259872	0.362511	-0.178169	3.248583	2.647383	-1.321233	0.000000	0.000000	28.336476	10.076836	12.888077	14.634052	-4.904166	55.136364	43.961726	73.433194	-6.064020	-5.166979	12.963844	-5.355410	55.935796	37.998820	55.516539	-11.837676	-18.570180
0.186441	4.111472	-4.598131	91.436958	0.317207	1.010686	0.464513	4.948552	-2.110560	7.240870	7.076994	0.123517	28.064809	-6.158024	0.000000	4.497903	1.504019	10.691544	4.393712	0.076685	25.250312	-17.492197	0.000000	0.452872	0.244532	-0.339246	0.841029	0.325228	-0.360449	0.744024	0.594555	-0.360449	0.517588	0.594555	-0.296840	0.420537	0.498650	-0.275637	0.258771	0.378780	-0.254435	3.234821	2.766195	-1.886785	0.000000	0.000000	28.340038	10.159245	12.856895	14.075775	-4.793531	54.173949	44.045327	74.382315	-6.266747	-5.071159	12.832123	-5.304711	55.998800	38.080116	54.731669	-11.687903	-18.238472
0.203390	4.252159	-4.507154	92.001900	0.316431	1.010722	0.463494	4.641706	-1.983920	7.097400	6.900016	0.120428	28.004647	-6.704298	0.000000	4.360707	1.401468	11.208467	4.349601	0.075915	25.114714	-17.502201	0.000000	0.450003	0.255656	-0.440646	0.835700	0.340022	-0.468187	0.739309	0.621602	-0.468187	0.514308	0.621602	-0.385566	0.417873	0.521333	-0.358025	0.257132	0.396011	-0.330485	3.214324	2.892030	-2.450743	0.000000	0.000000	28.343664	10.248832	12.809426	13.519159	-4.703138	53.147411	44.156671	75.628683	-6.289327	-4.923171	12.714596	-5.270123	56.098252	38.188054	53.757878	-11.466120	-18.004915
0.220339	4.405352	-4.412951	92.494279	0.315792	1.010787	0.462496	4.339022	-1.829737	7.106653	6.715580	0.117209	27.883515	-7.397109	0.000000	4.209388	1.276989	11.599287	4.324922	0.075484	24.937197	-17.496507	0.000000	0.445903	0.268033	-0.529858	0.828086	0.356484	-0.562974	0.732574	0.651696	-0.562974	0.509622	0.651696	-0.463626	0.414065	0.546574	-0.430510	0.254789	0.415184	-0.397393	3.185040	3.032048	-2.946911	0.000000	0.000000	28.345628	10.345030	12.770275	13.019427	-4.639641	52.237718	44.275912	76.621362	-6.081224	-4.725422	12.585369	-5.242113	56.044484	38.293394	53.281772	-11.300752	-17.791591
0.237288	4.557584	-4.318147	92.922267	0.315271	1.010878	0.461567	4.054296	-1.670124	7.136027	6.540500	0.114153	27.754535	-8.047030	0.000000	4.058006	1.146491	11.886536	4.331019	0.075591	24.727931	-17.486452	0.000000	0.440324	0.280190	-0.607858	0.817726	0.372653	-0.645849	0.723408	0.681254	-0.645849	0.503246	0.681254	-0.531876	0.408885	0.571364	-0.493885	0.251601	0.434014	-0.455894	3.145190	3.169566	-3.380725	0.000000	0.000000	28.345423	10.425074	12.724923	12.569964	-4.601373	51.377515	44.417510	77.600862	-5.678578	-4.467844	12.452140	-5.224614	55.836268	38.402776	53.081960	-11.059393	-17.573567
